0
SECTION
2
HEADER
9
$INSUNITS
70
4
9
$ACADVER
1
AC1014
9
$HANDSEED
5
FFFF
0
ENDSEC
0
SECTION
2
TABLES
0
TABLE
2
VPORT
5
8
100
AcDbSymbolTable
0
ENDTAB
0
TABLE
2
LTYPE
5
5
100
AcDbSymbolTable
0
LTYPE
5
14
100
AcDbSymbolTableRecord
100
AcDbLinetypeTableRecord
2
BYBLOCK
70
0
0
LTYPE
5
15
100
AcDbSymbolTableRecord
100
AcDbLinetypeTableRecord
2
BYLAYER
70
0
0
LTYPE
5
16
100
AcDbSymbolTableRecord
100
AcDbLinetypeTableRecord
2
DASHED
70
0
3
Dashed __ __ __ __ __ __ __ __ __ __ __ __ __ _
72
65
73
2
40
0.75
49
0.5
74
0
49
-0.25
74
0
0
ENDTAB
0
TABLE
2
LAYER
5
2
100
AcDbSymbolTable
70
2
0
LAYER
5
50
100
AcDbSymbolTableRecord
100
AcDbLayerTableRecord
2
0
70
0
62
7
6
CONTINUOUS
0
ENDTAB
0
TABLE
2
STYLE
5
3
100
AcDbSymbolTable
70
1
0
STYLE
5
11
100
AcDbSymbolTableRecord
100
AcDbTextStyleTableRecord
2
STANDARD
70
0
0
ENDTAB
0
TABLE
2
VIEW
5
6
100
AcDbSymbolTable
70
0
0
ENDTAB
0
TABLE
2
UCS
5
7
100
AcDbSymbolTable
70
0
0
ENDTAB
0
TABLE
2
APPID
5
9
100
AcDbSymbolTable
70
2
0
APPID
5
12
100
AcDbSymbolTableRecord
100
AcDbRegAppTableRecord
2
ACAD
70
0
0
ENDTAB
0
TABLE
2
DIMSTYLE
5
A
100
AcDbSymbolTable
70
1
0
ENDTAB
0
TABLE
2
BLOCK_RECORD
5
1
100
AcDbSymbolTable
70
1
0
BLOCK_RECORD
5
1F
100
AcDbSymbolTableRecord
100
AcDbBlockTableRecord
2
*MODEL_SPACE
0
BLOCK_RECORD
5
1B
100
AcDbSymbolTableRecord
100
AcDbBlockTableRecord
2
*PAPER_SPACE
0
ENDTAB
0
ENDSEC
0
SECTION
2
BLOCKS
0
BLOCK
5
20
100
AcDbEntity
100
AcDbBlockBegin
2
*MODEL_SPACE
0
ENDBLK
5
21
100
AcDbEntity
100
AcDbBlockEnd
0
BLOCK
5
1C
100
AcDbEntity
100
AcDbBlockBegin
2
*PAPER_SPACE
0
ENDBLK
5
1D
100
AcDbEntity
100
AcDbBlockEnd
0
ENDSEC
0
SECTION
2
ENTITIES
0
LWPOLYLINE
5
100
100
AcDbEntity
8
0
100
AcDbPolyline
90
4
70
1
43
0.0
10
-10.771435405755575
20
-30.57862075598748
42
0.20566772828272892
10
-17.874998485802255
20
-42.88235292539877
42
0.99999998946328783
10
-15.888887542935347
20
-43.117647044798908
42
-0.20566772828272881
10
-9.5746092495605204
20
-32.180996227544419
42
0.99999999999999989
0
LWPOLYLINE
5
101
100
AcDbEntity
8
0
100
AcDbPolyline
90
4
70
1
43
0.0
10
-15.888887542935349
20
-46.882352955201092
42
0.99999999999999989
10
-17.874998485802259
20
-47.117647074601223
42
0.20566772828272847
10
-10.771435405755598
20
-59.421379244012485
42
0.99999999999999989
10
-9.5746092495605453
20
-57.819003772455559
42
-0.20566772828272833
0
LWPOLYLINE
5
102
100
AcDbEntity
8
0
100
AcDbPolyline
90
4
70
1
43
0.0
10
-6.3142782933748256
20
-59.701356727656673
42
0.99999999999999989
10
-7.1035630800466887
20
-61.539026318613743
42
0.20566772828272883
10
7.1035630800466549
20
-61.539026318613736
42
0.99999999999999989
10
6.3142782933748167
20
-59.701356727656673
42
-0.2056677282827287
0
LWPOLYLINE
5
103
100
AcDbEntity
8
0
100
AcDbPolyline
90
4
70
1
43
0.0
10
9.5746092495605328
20
-57.819003772455588
42
0.99999999999999989
10
10.771435405755588
20
-59.42137924401252
42
0.20566772828272878
10
17.874998485802255
20
-47.117647074601223
42
0.99999999999999989
10
15.888887542935354
20
-46.882352955201085
42
-0.2056677282827287
0
LWPOLYLINE
5
104
100
AcDbEntity
8
0
100
AcDbPolyline
90
4
70
1
43
0.0
10
15.888887542935352
20
-43.117647044798915
42
0.99999999999999989
10
17.874998485802266
20
-42.88235292539877
42
0.2056677282827285
10
10.771435405755604
20
-30.578620755987473
42
0.99999999999999989
10
9.5746092495605453
20
-32.180996227544426
42
-0.20566772828272845
0
LWPOLYLINE
5
105
100
AcDbEntity
8
0
100
AcDbPolyline
90
4
70
1
43
0.0
10
2.3749015628113561
20
-41.781329068240098
42
0.99999999999999989
10
3.5623523442170359
20
-40.171993602360047
42
0.056099704154285245
10
2.4000000178813972
20
-39.500909173857082
42
0.99999999999999989
10
1.6000000119209201
20
-41.333939449238038
42
-0.056099704154288554
0
LWPOLYLINE
5
106
100
AcDbEntity
8
0
100
AcDbPolyline
90
4
70
1
43
0.0
10
-11.191659448693658
20
-40.670247260585683
42
0.99999999999999989
10
-13.05693602347594
20
-39.948621804016611
42
0.18669439110180666
10
-13.056936023475957
20
-50.051378195983375
42
0.99999999999999989
10
-11.191659448693667
20
-49.329752739414303
42
-0.18669439110180636
0
LWPOLYLINE
5
107
100
AcDbEntity
8
0
100
AcDbPolyline
90
4
70
1
43
0.0
10
-2.3603834413549074
20
-52.643859627817456
42
0.99999999999999989
10
-2.950479301693635
20
-54.554824534771768
42
0.15088242272116417
10
2.950479301693623
20
-54.554824534771825
42
0.99999999999999989
10
2.3603834413548879
20
-52.643859627817456
42
-0.15088242272116348
0
LWPOLYLINE
5
108
100
AcDbEntity
8
0
100
AcDbPolyline
90
4
70
1
43
0.0
10
-3.9749015747322969
20
-44.552610380997955
42
0.99999998946328783
10
-5.9623523620984473
20
-44.328915571496914
42
0.056099704154288881
10
-5.9623523620984322
20
-45.671084428503079
42
0.99999999999999989
10
-3.9749015747322956
20
-45.447389619002053
42
-0.056099704154288554
0
CIRCLE
5
109
100
AcDbEntity
8
0
100
AcDbCircle
10
-6.6613381477509392e-15
20
-45
30
0
40
2.0000000000000018
210
0
220
0
230
1
0
LWPOLYLINE
5
110
100
AcDbEntity
8
0
100
AcDbPolyline
90
4
70
1
43
0.0
10
5.43958489997474
20
-50.866081836794201
42
0.99999998946328783
10
6.7994811249684197
20
-52.332602295992757
42
0.15088242272116303
10
9.7499604266620423
20
-47.222222238779075
42
0.99999999999999989
10
7.7999683413296284
20
-46.777777791023269
42
-0.15088242272116278
0
LWPOLYLINE
5
111
100
AcDbEntity
8
0
100
AcDbPolyline
90
4
70
1
43
0.0
10
7.7999683413296328
20
-43.222222208976753
42
0.99999999999999989
10
9.7499604266620157
20
-42.777777761220946
42
0.15088242272116345
10
6.7994811249684215
20
-37.667397704007243
42
0.99999999999999989
10
5.43958489997474
20
-39.133918163205792
42
-0.15088242272116337
0
LWPOLYLINE
5
112
100
AcDbEntity
8
0
100
AcDbPolyline
90
4
70
1
43
0.0
10
-1.6000000119209292
20
-41.333939449238038
42
0.99999998946328783
10
-2.4000000178814238
20
-39.500909173857075
42
0.056099704154287625
10
-3.5623523442170391
20
-40.17199360236016
42
1.0000000105367122
10
-2.3749015628113543
20
-41.781329068240076
42
-0.056099704154287659
0
LWPOLYLINE
5
113
100
AcDbEntity
8
0
100
AcDbPolyline
90
4
70
1
43
0.0
10
9.3455055887848992
20
-37.472614976634297
42
0.99999999999999989
10
10.903089853582401
20
-36.218050806073315
42
0.18669439110180608
10
2.1538461698935603
20
-31.166672610089972
42
0.99999999999999989
10
1.846153859908769
20
-33.142862237219973
42
-0.18669439110180636
0
LWPOLYLINE
5
114
100
AcDbEntity
8
0
100
AcDbPolyline
90
4
70
1
43
0.0
10
-1.8461538599087643
20
-33.14286223721998
42
0.99999999999999989
10
-2.15384616989357
20
-31.166672610089968
42
0.18669439110180636
10
-10.903089853582388
20
-36.21805080607335
42
0.99999999999999989
10
-9.345505588784901
20
-37.472614976634297
42
-0.18669439110180647
0
LWPOLYLINE
5
115
100
AcDbEntity
8
0
100
AcDbPolyline
90
4
70
1
43
0.0
10
-5.4395848999747329
20
-39.133918163205792
42
0.99999999999999989
10
-6.7994811249684117
20
-37.667397704007243
42
0.1508824227211637
10
-9.749960426662037
20
-42.777777761220939
42
0.99999999999999989
10
-7.7999683413296337
20
-43.222222208976753
42
-0.1508824227211637
0
LWPOLYLINE
5
116
100
AcDbEntity
8
0
100
AcDbPolyline
90
4
70
1
43
0.0
10
3.9749015747322969
20
-45.447389619002053
42
0.99999998946328783
10
5.9623523620984455
20
-45.671084428503093
42
0.05609970415428913
10
5.962352362098434
20
-44.328915571496921
42
0.99999999999999989
10
3.9749015747322969
20
-44.552610380997947
42
-0.056099704154288776
0
LWPOLYLINE
5
117
100
AcDbEntity
8
0
100
AcDbPolyline
90
4
70
1
43
0.0
10
2.3603834413548967
20
-37.356140372182544
42
0.99999999999999989
10
2.9504793016936253
20
-35.445175465228189
42
0.15088242272116334
10
-2.9504793016936111
20
-35.445175465228175
42
0.99999999999999989
10
-2.3603834413548928
20
-37.356140372182537
42
-0.15088242272116326
0
LWPOLYLINE
5
118
100
AcDbEntity
8
0
100
AcDbPolyline
90
4
70
1
43
0.0
10
-2.3749015628113659
20
-48.218670931759902
42
0.99999999999999989
10
-3.5623523442170315
20
-49.828006397639925
42
0.056099704154286625
10
-2.4000000178813878
20
-50.499090826142925
42
0.99999998946328783
10
-1.6000000119209363
20
-48.666060550761962
42
-0.05609970415428811
0
LWPOLYLINE
5
119
100
AcDbEntity
8
0
100
AcDbPolyline
90
4
70
1
43
0.0
10
11.191659448693665
20
-49.32975273941431
42
0.99999999999999989
10
13.056936023475957
20
-50.051378195983382
42
0.18669439110180636
10
13.056936023475949
20
-39.948621804016625
42
0.99999999999999989
10
11.191659448693663
20
-40.670247260585683
42
-0.18669439110180622
0
LWPOLYLINE
5
120
100
AcDbEntity
8
0
100
AcDbPolyline
90
4
70
1
43
0.0
10
1.8461538599087568
20
-56.857137762780013
42
0.99999998946328783
10
2.1538461698935811
20
-58.833327389910025
42
0.18669439110180605
10
10.903089853582388
20
-53.781949193926657
42
0.99999999999999989
10
9.3455055887848797
20
-52.527385023365703
42
-0.18669439110180622
0
LWPOLYLINE
5
121
100
AcDbEntity
8
0
100
AcDbPolyline
90
4
70
1
43
0.0
10
1.6000000119209274
20
-48.666060550761962
42
0.99999999999999989
10
2.4000000178813607
20
-50.499090826142925
42
0.056099704154288756
10
3.5623523442170315
20
-49.828006397639868
42
0.99999998946328783
10
2.3749015628113672
20
-48.218670931759902
42
-0.056099704154288776
0
LWPOLYLINE
5
122
100
AcDbEntity
8
0
100
AcDbPolyline
90
4
70
1
43
0.0
10
-7.7999683413296328
20
-46.777777791023247
42
0.99999999999999989
10
-9.7499604266620139
20
-47.222222238779054
42
0.1508824227211634
10
-6.7994811249684233
20
-52.332602295992743
42
0.99999999999999989
10
-5.4395848999747409
20
-50.866081836794201
42
-0.15088242272116337
0
LWPOLYLINE
5
123
100
AcDbEntity
8
0
100
AcDbPolyline
90
4
70
1
43
0.0
10
-9.3455055887849028
20
-52.527385023365682
42
0.99999999999999989
10
-10.903089853582376
20
-53.781949193926657
42
0.18669439110180636
10
-2.1538461698935554
20
-58.833327389910018
42
0.99999999999999989
10
-1.8461538599087679
20
-56.857137762780006
42
-0.1866943911018068
0
CIRCLE
5
124
100
AcDbEntity
8
0
100
AcDbCircle
10
-10.000000000000004
20
-3.9999999999999987
30
0
40
1.5000000000000013
210
0
220
0
230
1
0
CIRCLE
5
125
100
AcDbEntity
8
0
100
AcDbCircle
10
21.500000000000025
20
9.000000149011619
30
0
40
1.3
210
0
220
0
230
1
0
CIRCLE
5
126
100
AcDbEntity
8
0
100
AcDbCircle
10
21.5
20
-33.999999850988395
30
0
40
1.3
210
0
220
0
230
1
0
CIRCLE
5
127
100
AcDbEntity
8
0
100
AcDbCircle
10
-21.499999999999989
20
9.0000001490116261
30
0
40
1.3
210
0
220
0
230
1
0
CIRCLE
5
128
100
AcDbEntity
8
0
100
AcDbCircle
10
-21.5
20
-33.999999850988367
30
0
40
1.3
210
0
220
0
230
1
0
LWPOLYLINE
5
129
100
AcDbEntity
8
0
100
AcDbPolyline
90
4
70
1
43
0.0
10
6.3142782933748407
20
-30.298643272343337
42
0.99999999999999989
10
7.1035630800466745
20
-28.460973681386253
42
0.20566772828272828
10
-7.1035630800466398
20
-28.46097368138625
42
0.99999999999999989
10
-6.3142782933748105
20
-30.29864327234332
42
-0.20566772828272881
0
CIRCLE
5
130
100
AcDbEntity
8
0
100
AcDbCircle
10
10
20
-19
30
0
40
2.5999999999999988
210
0
220
-0
230
1
0
CIRCLE
5
131
100
AcDbEntity
8
0
100
AcDbCircle
10
0
20
-19
30
0
40
2.6000000000000014
210
0
220
-0
230
1
0
CIRCLE
5
132
100
AcDbEntity
8
0
100
AcDbCircle
10
0
20
20.000000298023224
30
0
40
12.000000000000002
210
0
220
-0
230
1
0
CIRCLE
5
133
100
AcDbEntity
8
0
100
AcDbCircle
10
-10
20
-19
30
0
40
2.5999999999999979
210
0
220
-0
230
1
0
LWPOLYLINE
5
134
100
AcDbEntity
8
0
100
AcDbPolyline
90
4
70
1
43
0.0
10
-25
20
-44.999999999999993
42
0.99999999999999989
10
25
20
-45
10
25
20
20.000000298023224
42
0.99999999999999989
10
-25
20
20.000000298023224
0
ENDSEC
0
SECTION
2
OBJECTS
0
DICTIONARY
5
C
100
AcDbDictionary
3
ACAD_GROUP
350
D
3
ACAD_MLINESTYLE
350
17
0
DICTIONARY
5
D
100
AcDbDictionary
0
DICTIONARY
5
1A
330
C
100
AcDbDictionary
0
DICTIONARY
5
17
100
AcDbDictionary
0
ENDSEC
0
EOF
